<svg id="Layer_1" data-name="Layer 1" xmlns="http://www.w3.org/2000/svg" viewBox="0 0 51.7 51.7"><title>Crypto Logos Logo</title><path d="M317.78,373.93a25.84,25.84,0,1,1-34.86,11,25.85,25.85,0,0,1,34.86-11h0Z" transform="translate(-280 -371)" style="fill: rgb(255, 153, 51); fill-rule: evenodd;"></path><path d="M315.86,406a13.68,13.68,0,0,1-7.7,4.2l-1.2,5.41-3.5-.78,1-4.51a13.63,13.63,0,0,1-3.52-.85l-1,4.57-3.5-.78,1.24-5.61A13.59,13.59,0,0,1,303,383.56l1.24-5.61,3.5,0.78-1,4.57a13.62,13.62,0,0,1,3.55.72l1-4.51,3.5,0.78-1.2,5.41a13.54,13.54,0,0,1,3.7,3.86,12.94,12.94,0,0,1,1.51,3.21l-5.63,1.78a8.46,8.46,0,0,0-.84-1.83A7.7,7.7,0,1,0,310,403.35a8.22,8.22,0,0,0,1.54-1.3l4.34,4h0Z" transform="translate(-280 -371)" style="fill: rgb(255, 255, 255);"></path></svg>